<?xml version="1.0" encoding="UTF-8"?>
<svg width="120" height="40" viewBox="0 0 120 40" fill="none" xmlns="http://www.w3.org/2000/svg">
  <path d="M20 10C20 8.9 20.4 8 21.2 7.2C22 6.4 22.9 6 24 6C24.1 6 24.2 6 24.3 6C24.4 7.1 24 8.1 23.2 8.9C22.4 9.7 21.4 10.1 20.3 10C20.2 10 20.1 10 20 10Z" fill="#000000"/>
  <path d="M30 20C30 15.6 33.6 12 38 12C42.4 12 46 15.6 46 20C46 24.4 42.4 28 38 28C33.6 28 30 24.4 30 20ZM38 25C40.8 25 43 22.8 43 20C43 17.2 40.8 15 38 15C35.2 15 33 17.2 33 20C33 22.8 35.2 25 38 25Z" fill="#000000"/>
  <path d="M50 12H53V28H50V12Z" fill="#000000"/>
  <path d="M60 12H63V28H60V12Z" fill="#000000"/>
  <path d="M70 12H73V28H70V12Z" fill="#000000"/>
  <path d="M80 12H83V28H80V12Z" fill="#000000"/>
  <path d="M90 12H93V28H90V12Z" fill="#000000"/>
  <path d="M100 12H103V28H100V12Z" fill="#000000"/>
  <path d="M110 12H113V28H110V12Z" fill="#000000"/>
</svg> 