<?xml version="1.0" encoding="UTF-8"?>
<svg width="100" height="40" viewBox="0 0 100 40" fill="none" xmlns="http://www.w3.org/2000/svg">
  <path d="M20 10C20 8.9 20.4 8 21.2 7.2C22 6.4 22.9 6 24 6C24.1 6 24.2 6 24.3 6C24.4 7.1 24 8.1 23.2 8.9C22.4 9.7 21.4 10.1 20.3 10C20.2 10 20.1 10 20 10Z" fill="#000000"/>
  <path d="M24 12C22.3 12 20.7 12.5 19.2 13.5C17.7 14.5 16.5 16 15.6 18C14.7 20 14.2 22.2 14.2 24.6C14.2 27 14.7 29.2 15.6 31.2C16.5 33.2 17.7 34.7 19.2 35.7C20.7 36.7 22.3 37.2 24 37.2C25.7 37.2 27.3 36.7 28.8 35.7C30.3 34.7 31.5 33.2 32.4 31.2C33.3 29.2 33.8 27 33.8 24.6C33.8 22.2 33.3 20 32.4 18C31.5 16 30.3 14.5 28.8 13.5C27.3 12.5 25.7 12 24 12Z" fill="#000000"/>
</svg> 