<?xml version="1.0" encoding="UTF-8"?>
<svg width="120" height="40" viewBox="0 0 120 40" fill="none" xmlns="http://www.w3.org/2000/svg">
  <path d="M24.5 20.5C24.5 16.4 27.9 13 32 13C34.1 13 36 13.8 37.5 15.2L35.2 17.5C34.2 16.5 32.7 15.9 32 15.9C29.8 15.9 28 17.7 28 19.9C28 22.1 29.8 23.9 32 23.9C33.1 23.9 34.1 23.5 34.8 22.8V20.5H32V18.2H37.5C37.7 18.7 37.8 19.3 37.8 19.9C37.8 24 34.4 27.4 30.3 27.4C26.2 27.4 22.8 24 22.8 19.9C22.8 15.8 26.2 12.4 30.3 12.4C32.4 12.4 34.3 13.2 35.8 14.6L38.1 12.3C36.1 10.3 33.3 9 30.3 9C24.7 9 20.1 13.6 20.1 19.2C20.1 24.8 24.7 29.4 30.3 29.4C35.9 29.4 40.5 24.8 40.5 19.2C40.5 18.6 40.4 18 40.2 17.5H24.5V20.5Z" fill="#4285F4"/>
  <path d="M50.5 13H53.5V27H50.5V13Z" fill="#34A853"/>
  <path d="M60.5 13H63.5V27H60.5V13Z" fill="#FBBC05"/>
  <path d="M70.5 13H73.5V27H70.5V13Z" fill="#EA4335"/>
</svg> 