<?xml version="1.0" encoding="UTF-8"?>
<svg width="140" height="40" viewBox="0 0 140 40" fill="none" xmlns="http://www.w3.org/2000/svg">
  <rect x="10" y="10" width="20" height="20" fill="#F25022"/>
  <rect x="35" y="10" width="20" height="20" fill="#7FBA00"/>
  <rect x="10" y="35" width="20" height="20" fill="#00A4EF"/>
  <rect x="35" y="35" width="20" height="20" fill="#FFB900"/>
  <path d="M70 20C70 14.5 74.5 10 80 10C85.5 10 90 14.5 90 20C90 25.5 85.5 30 80 30C74.5 30 70 25.5 70 20ZM80 27C83.9 27 87 23.9 87 20C87 16.1 83.9 13 80 13C76.1 13 73 16.1 73 20C73 23.9 76.1 27 80 27Z" fill="#000000"/>
  <path d="M100 13H103V27H100V13Z" fill="#000000"/>
  <path d="M110 13H113V27H110V13Z" fill="#000000"/>
  <path d="M120 13H123V27H120V13Z" fill="#000000"/>
  <path d="M130 13H133V27H130V13Z" fill="#000000"/>
</svg> 